<?xml version="1.0" standalone="no"?>
<!DOCTYPE svg PUBLIC "-//W3C//DTD SVG 20010904//EN"
 "http://www.w3.org/TR/2001/REC-SVG-20010904/DTD/svg10.dtd">
<svg version="1.0" xmlns="http://www.w3.org/2000/svg"
 width="1060.000000pt" height="130.000000pt" viewBox="0 0 1060.000000 130.000000"
 preserveAspectRatio="xMidYMid meet">

<g transform="translate(0.000000,130.000000) scale(0.100000,-0.100000)"
fill="#000000" stroke="none">
<path d="M100 1250 l0 -50 -50 0 -50 0 0 -550 0 -550 50 0 50 0 0 -50 0 -50
2550 0 2550 0 0 250 0 250 -150 0 -150 0 0 150 0 150 150 0 150 0 0 250 0 250
-600 0 -600 0 0 -50 0 -50 -50 0 -50 0 0 50 0 50 -700 0 -700 0 0 -50 0 -50
-50 0 -50 0 0 50 0 50 -500 0 -500 0 0 -50 0 -50 -50 0 -50 0 0 50 0 50 -600
0 -600 0 0 -50z m1000 -150 l0 -100 -350 0 -350 0 0 -300 0 -300 250 0 250 0
0 100 0 100 -150 0 -150 0 0 100 0 100 250 0 250 0 0 -300 0 -300 -450 0 -450
0 0 50 0 50 -50 0 -50 0 0 400 0 400 50 0 50 0 0 50 0 50 450 0 450 0 0 -100z
m1100 50 l0 -50 50 0 50 0 0 -450 0 -450 -200 0 -200 0 0 200 0 200 -100 0
-100 0 0 -200 0 -200 -200 0 -200 0 0 450 0 450 50 0 50 0 0 50 0 50 400 0
400 0 0 -50z m900 0 l0 -50 50 0 50 0 0 50 0 50 250 0 250 0 0 -50 0 -50 50 0
50 0 0 -450 0 -450 -150 0 -150 0 0 400 0 400 -100 0 -100 0 0 -400 0 -400
-150 0 -150 0 0 400 0 400 -100 0 -100 0 0 -400 0 -400 -150 0 -150 0 0 450 0
450 50 0 50 0 0 50 0 50 250 0 250 0 0 -50z m1900 -50 l0 -100 -300 0 -300 0
0 -100 0 -100 150 0 150 0 0 -100 0 -100 -150 0 -150 0 0 -100 0 -100 300 0
300 0 0 -100 0 -100 -450 0 -450 0 0 50 0 50 -50 0 -50 0 0 400 0 400 50 0 50
0 0 50 0 50 450 0 450 0 0 -100z"/>
<path d="M1700 900 l0 -100 100 0 100 0 0 100 0 100 -100 0 -100 0 0 -100z"/>
<path d="M5500 1250 l0 -50 -50 0 -50 0 0 -600 0 -600 2600 0 2600 0 0 250 0
250 -150 0 -150 0 0 150 0 150 150 0 150 0 0 250 0 250 -600 0 -600 0 0 -50 0
-50 -50 0 -50 0 0 50 0 50 -700 0 -700 0 0 -50 0 -50 -50 0 -50 0 0 50 0 50
-500 0 -500 0 0 -50 0 -50 -100 0 -100 0 0 50 0 50 -550 0 -550 0 0 -50z m900
-100 l0 -50 50 0 50 0 0 -450 0 -450 -200 0 -200 0 0 400 0 400 -100 0 -100 0
0 -400 0 -400 -200 0 -200 0 0 450 0 450 50 0 50 0 0 50 0 50 400 0 400 0 0
-50z m1200 0 l0 -50 50 0 50 0 0 -450 0 -450 -200 0 -200 0 0 200 0 200 -100
0 -100 0 0 -200 0 -200 -200 0 -200 0 0 450 0 450 50 0 50 0 0 50 0 50 400 0
400 0 0 -50z m900 0 l0 -50 50 0 50 0 0 50 0 50 250 0 250 0 0 -50 0 -50 50 0
50 0 0 -450 0 -450 -150 0 -150 0 0 400 0 400 -100 0 -100 0 0 -400 0 -400
-150 0 -150 0 0 400 0 400 -100 0 -100 0 0 -400 0 -400 -150 0 -150 0 0 450 0
450 50 0 50 0 0 50 0 50 250 0 250 0 0 -50z m1900 -50 l0 -100 -300 0 -300 0
0 -100 0 -100 150 0 150 0 0 -100 0 -100 -150 0 -150 0 0 -100 0 -100 300 0
300 0 0 -100 0 -100 -450 0 -450 0 0 50 0 50 -50 0 -50 0 0 400 0 400 50 0 50
0 0 50 0 50 450 0 450 0 0 -100z"/>
<path d="M7100 900 l0 -100 100 0 100 0 0 100 0 100 -100 0 -100 0 0 -100z"/>
</g>
</svg>
